<?xml version="1.0" encoding="UTF-8" standalone="no"?>
<svg
   xmlns:dc="http://purl.org/dc/elements/1.1/"
   xmlns:cc="http://creativecommons.org/ns#"
   xmlns:rdf="http://www.w3.org/1999/02/22-rdf-syntax-ns#"
   xmlns:svg="http://www.w3.org/2000/svg"
   xmlns="http://www.w3.org/2000/svg"
   xmlns:sodipodi="http://sodipodi.sourceforge.net/DTD/sodipodi-0.dtd"
   xmlns:inkscape="http://www.inkscape.org/namespaces/inkscape"
   inkscape:version="1.0 (4035a4fb49, 2020-05-01)"
   sodipodi:docname="icon.svg"
   xml:space="preserve"
   style="enable-background:new 0 0 512.001 512.001;"
   viewBox="0 0 512.001 512.001"
   y="0px"
   x="0px"
   id="Layer_1"
   version="1.1"><metadata
   id="metadata148"><rdf:RDF><cc:Work
       rdf:about=""><dc:format>image/svg+xml</dc:format><dc:type
         rdf:resource="http://purl.org/dc/dcmitype/StillImage" /><dc:title></dc:title></cc:Work></rdf:RDF></metadata><defs
   id="defs146" /><sodipodi:namedview
   inkscape:current-layer="Layer_1"
   inkscape:window-maximized="1"
   inkscape:window-y="-11"
   inkscape:window-x="-11"
   inkscape:cy="256.00049"
   inkscape:cx="256.00049"
   inkscape:zoom="1.9687462"
   showgrid="false"
   id="namedview144"
   inkscape:window-height="2126"
   inkscape:window-width="3840"
   inkscape:pageshadow="2"
   inkscape:pageopacity="0"
   guidetolerance="10"
   gridtolerance="10"
   objecttolerance="10"
   borderopacity="1"
   bordercolor="#666666"
   pagecolor="#ffffff" />
<ellipse
   ry="243.556"
   rx="239.74649"
   cy="257.27029"
   cx="256.50842"
   id="path150"
   style="fill:#b7c4c8;stroke-width:0.939272" /><g
   style="fill:#53676c"
   id="g111">
	<g
   style="fill:#53676c"
   id="g109">
		<path
   style="fill:#53676c"
   id="path107"
   d="M421.617,60.794C313.806-30.67,152.265-17.426,60.796,90.386s-78.219,269.352,29.593,360.821    c107.801,91.463,269.352,78.219,360.821-29.592C542.667,313.803,529.427,152.262,421.617,60.794z M256,45.199    c38.403,0,74.406,10.275,105.415,28.217l-74.53,129.09c-19.259-11.147-42.91-10.907-61.779-0.014L150.584,73.414    C181.596,55.473,217.597,45.199,256,45.199z M150.585,438.585c-31.044-17.884-57.943-43.925-77.144-77.184    C54.239,328.142,45.137,291.827,45.17,256h149.06c-0.024,22.252,12.01,42.615,30.877,53.51L150.585,438.585z M233.294,282.763    c-14.781-12.541-16.598-34.688-4.057-49.469c12.541-14.781,34.688-16.598,49.469-4.057c14.781,12.541,16.597,34.688,4.057,49.469    C270.223,293.488,248.074,295.303,233.294,282.763z M438.56,361.401c-19.202,33.259-46.101,59.3-77.144,77.184l-74.53-129.09    c19.283-11.105,30.9-31.707,30.901-53.495h149.044C466.864,291.827,457.762,328.142,438.56,361.401z" />
	</g>
</g>
<g
   id="g113">
</g>
<g
   id="g115">
</g>
<g
   id="g117">
</g>
<g
   id="g119">
</g>
<g
   id="g121">
</g>
<g
   id="g123">
</g>
<g
   id="g125">
</g>
<g
   id="g127">
</g>
<g
   id="g129">
</g>
<g
   id="g131">
</g>
<g
   id="g133">
</g>
<g
   id="g135">
</g>
<g
   id="g137">
</g>
<g
   id="g139">
</g>
<g
   id="g141">
</g>
</svg>
